<svg width="1200" height="800" viewBox="0 0 1200 800" fill="none" xmlns="http://www.w3.org/2000/svg">
  <rect width="1200" height="800" fill="#F4F2EC"/>
  <rect x="150" y="130" width="900" height="540" rx="36" fill="white" stroke="#141414" stroke-width="6"/>

  <rect x="230" y="220" width="420" height="360" rx="30" fill="#E8F3E9" stroke="#C3DEC5" stroke-width="4"/>
  <path d="M285 290H590" stroke="#141414" stroke-width="6" stroke-linecap="round"/>
  <path d="M285 355H590" stroke="#141414" stroke-width="6" stroke-linecap="round"/>
  <path d="M285 420H590" stroke="#141414" stroke-width="6" stroke-linecap="round"/>
  <path d="M285 485H540" stroke="#141414" stroke-width="6" stroke-linecap="round"/>

  <circle cx="810" cy="360" r="145" fill="#EAE3FF" stroke="#B7A1FF" stroke-width="4"/>
  <circle cx="810" cy="360" r="90" fill="white" stroke="#141414" stroke-width="6"/>
  <path d="M810 360L810 305" stroke="#2F6BFF" stroke-width="8" stroke-linecap="round"/>
  <path d="M810 360L860 390" stroke="#2F6BFF" stroke-width="8" stroke-linecap="round"/>
  <circle cx="810" cy="360" r="10" fill="#141414"/>

  <rect x="720" y="520" width="190" height="70" rx="20" fill="#F9F0DC" stroke="#E9D4A6" stroke-width="4"/>
  <path d="M760 555H870" stroke="#141414" stroke-width="5" stroke-linecap="round"/>

  <!-- person planning -->
  <circle cx="665" cy="555" r="30" fill="#F9F0DC" stroke="#141414" stroke-width="5"/>
  <rect x="628" y="588" width="75" height="72" rx="20" fill="#EAF0FF" stroke="#141414" stroke-width="5"/>
  <path d="M626 610L590 595" stroke="#141414" stroke-width="5" stroke-linecap="round"/>
  <path d="M705 610L738 595" stroke="#141414" stroke-width="5" stroke-linecap="round"/>
</svg>
